# xmcd
#
# Track frame offsets:
#	150
#	8455
#	18032
#	29987
#	45942
#	57757
#	68267
#	77464
#	85937
#	97297
#	111854
#	133792
#	143072
#	154254
#	164046
#	175023
#
# Disc length: 2474 seconds
#
# Revision: 1
# Processed by: cddbd v1.5.1PL0 Copyright (c) Steve Scherf et al.
# Submitted via: audiograbber 1.83.01
#
DISCID=c309a810
DTITLE=Various Artist - The World's Hottest Fiddlers
DYEAR=2002
DGENRE=Bluegrass
TTITLE0=Benny Martin - Foggy Mountain Breakdown
TTITLE1=Kenny Baker w/Bobby Osborne - Sally Ann
TTITLE2=Benny Martin and Buddy Spicher - Down Yonder
TTITLE3=Barbara Lamb - Ramblin' Man
TTITLE4=The Osborne Brothers - Orange Blossom Special
TTITLE5=Johnny Gimble - Ragtime Annie
TTITLE6=The Bluegrass Cardinals - Pretty Red Wing
TTITLE7=Benny Martin - Blue Moon of Kentucky
TTITLE8=Johnny Gimble - Black and White Rag
TTITLE9=Johnny Gimble and Benny Martin - Dueling Fiddles
TTITLE10=Glen Duncan - Hotel California
TTITLE11=Johnny Gimble - Beaumont Rag
TTITLE12=Heights of Grass - Bile 'Em Cabbage Down
TTITLE13=Ramona Jones - Ramona's Choice
TTITLE14=Paul Warren - Grey Eagle
TTITLE15=Fiddlin' Red Herron - Sweet Georgia Brown
EXTD=
EXTT0=
EXTT1=
EXTT2=
EXTT3=
EXTT4=
EXTT5=
EXTT6=
EXTT7=
EXTT8=
EXTT9=
EXTT10=
EXTT11=
EXTT12=
EXTT13=
EXTT14=
EXTT15=
PLAYORDER=
